<svg width="59" height="29" viewBox="0 0 59 29" fill="none" xmlns="http://www.w3.org/2000/svg">
<path d="M1.32 23H4.8V15.896H12.264V12.92H4.8V8.792H13.608V5.84H1.32V23ZM22.194 23.288C26.586 23.288 28.842 21.152 28.842 17.48V5.84H25.362V17.432C25.362 19.208 24.33 20.504 22.122 20.504C19.794 20.504 18.906 19.256 18.906 17.48V5.84H15.426V17.48C15.426 21.2 17.754 23.288 22.194 23.288Z" fill="black"/>
<path d="M32.488 23H33.736V14.624H42.064V13.544H33.736V6.944H43.384V5.84H32.488V23ZM51.3998 23.264C55.1198 23.264 57.5918 21.488 57.5918 17.6V5.84H56.3438V17.504C56.3438 20.864 54.4238 22.16 51.4718 22.16C48.3518 22.16 46.5998 20.864 46.5998 17.504V5.84H45.3518V17.6C45.3518 21.392 47.6558 23.264 51.3998 23.264Z" fill="black"/>
</svg>
