<svg width="27" height="27" viewBox="0 0 27 27" fill="none" xmlns="http://www.w3.org/2000/svg">
<path d="M13.5982 25.2414C10.4495 26.6652 7.57121 26.525 5.04354 24.8242C4.89224 24.7224 4.69106 24.7372 4.55638 24.86C3.99333 25.3729 3.4681 25.696 2.99538 25.8203C2.45259 25.963 1.98916 25.8329 1.57835 25.4228C1.16781 25.013 1.03767 24.5508 1.18042 24.0097C1.30487 23.538 1.62845 23.0139 2.14219 22.4519C2.26554 22.317 2.28036 22.1152 2.1781 21.9638C1.20715 20.5258 0.741878 18.9523 0.79514 17.287C0.838171 15.9419 1.21644 14.529 1.91944 13.0875C3.12938 10.6065 4.902 8.88469 4.92747 8.86012C5.0851 8.70887 5.09032 8.45854 4.93913 8.30092C4.78788 8.14329 4.5375 8.13807 4.37988 8.28926C4.30352 8.36251 2.49488 10.1133 1.21844 12.7203C0.462016 14.2653 0.0536919 15.789 0.00496516 17.2489C-0.0532538 18.9898 0.400738 20.637 1.35497 22.1497C0.86997 22.7249 0.554406 23.2817 0.415556 23.808C0.200874 24.622 0.409703 25.374 1.01953 25.9827C1.62903 26.5912 2.38176 26.7996 3.19657 26.5854C3.72386 26.4468 4.28174 26.1316 4.85813 25.6472C6.28676 26.5453 7.83652 27.0001 9.47029 27.0001C9.49107 27.0001 9.51184 27.0001 9.53262 26.9999C10.946 26.9899 12.4235 26.6407 13.9242 25.9621C14.1232 25.8721 14.2116 25.6378 14.1216 25.4387C14.0316 25.2397 13.7973 25.1512 13.5982 25.2414Z" fill="black"/>
<path d="M2.11163 17.3732C2.0763 18.7593 2.45567 20.0205 3.27158 21.2289C3.34799 21.3421 3.47271 21.4031 3.59975 21.4031C3.6759 21.4031 3.75284 21.3811 3.82071 21.3354C4.00174 21.2131 4.04941 20.9673 3.92718 20.7863C3.20656 19.719 2.87138 18.6092 2.90239 17.3934C2.90792 17.175 2.73543 16.9935 2.51711 16.9879C2.29789 16.9824 2.11722 17.1549 2.11163 17.3732Z" fill="black"/>
<path d="M2.71183 15.8395C2.74906 15.8505 2.78656 15.8557 2.82352 15.8557C2.99449 15.8557 3.15216 15.7439 3.20279 15.5716C3.34507 15.0875 3.53939 14.5869 3.78034 14.0838C3.87468 13.8868 3.79146 13.6506 3.5945 13.5562C3.39743 13.4619 3.16129 13.5451 3.06694 13.7421C2.8077 14.2834 2.59808 14.8239 2.44389 15.3485C2.38229 15.5581 2.50226 15.7779 2.71183 15.8395Z" fill="black"/>
<path d="M25.979 8.97934C25.1501 6.97621 23.9285 5.56087 22.6127 5.03432C22.8501 4.79058 23.129 4.4651 23.381 4.07012C24.1693 2.83455 24.3175 1.51297 23.8096 0.248234C23.7281 0.0455753 23.4978 -0.0528801 23.2951 0.0286475C23.0924 0.110017 22.9941 0.340361 23.0755 0.543073C23.4873 1.56839 23.37 2.60521 22.7268 3.62472C22.416 4.11726 22.0499 4.4912 21.8154 4.70509C21.2606 4.28564 20.61 4.16024 19.9142 4.34318C19.3869 4.48176 18.829 4.79696 18.2527 5.28138C16.12 3.93928 13.7485 3.59208 11.1989 4.25C8.97564 4.82359 7.07282 6.05726 5.86804 6.99119C5.69544 7.12503 5.66396 7.37346 5.79775 7.54612C5.87574 7.64668 5.99255 7.69931 6.11062 7.69931C6.19526 7.69931 6.28058 7.67226 6.35267 7.61636C11.9974 3.24071 16.1151 4.79084 18.0671 6.10435C18.2183 6.20608 18.4194 6.19131 18.5542 6.06855C19.1173 5.5556 19.6425 5.23249 20.1152 5.10825C20.4747 5.0137 20.7995 5.0389 21.0971 5.18582C19.5599 6.29884 18.6254 8.95207 18.7271 12.076C18.7342 12.2943 18.9172 12.4645 19.1353 12.4584C19.3536 12.4513 19.5248 12.2686 19.5177 12.0503C19.4184 9.00396 20.3814 6.3954 21.8702 5.63602C23.1253 5.87559 24.4106 7.25813 25.248 9.28187C26.0124 11.1288 26.3373 13.3086 26.1629 15.4196C25.9734 17.7138 25.1995 19.8697 23.9187 21.6821C21.7203 19.6959 20.2321 16.9642 19.7117 13.943C19.6746 13.7277 19.47 13.5834 19.2548 13.6204C19.0396 13.6575 18.8951 13.862 18.9322 14.0773C19.2256 15.7806 19.8105 17.3975 20.6454 18.8549C19.5095 20.7836 18.1965 22.0556 18.1831 22.0684C18.1794 22.072 18.1756 22.0758 18.1721 22.0794C18.1609 22.091 17.0327 23.2523 15.2935 24.3319C15.1079 24.4472 15.0509 24.691 15.166 24.8766C15.2409 24.9972 15.3702 25.0635 15.5024 25.0635C15.5736 25.0635 15.6457 25.0443 15.7106 25.004C17.4941 23.8969 18.6367 22.7364 18.7363 22.6338C18.841 22.5326 20.0045 21.3909 21.1114 19.6124C21.8391 20.716 22.7178 21.7124 23.7275 22.5654C23.7993 22.626 23.8898 22.6588 23.9828 22.6588C23.9971 22.6588 24.0116 22.658 24.026 22.6565C24.1338 22.6446 24.232 22.5891 24.2976 22.5028C27.777 17.9295 27.3779 12.3596 25.979 8.97934Z" fill="black"/>
<path d="M9.1416 24.8189C9.36004 24.8189 9.53711 24.6418 9.53711 24.4233C9.53711 24.2049 9.36004 24.0278 9.1416 24.0278C8.92317 24.0278 8.74609 24.2049 8.74609 24.4233C8.74609 24.6418 8.92317 24.8189 9.1416 24.8189Z" fill="black"/>
<path d="M13.9092 7.16504C14.1276 7.16504 14.3047 6.98797 14.3047 6.76953C14.3047 6.5511 14.1276 6.37402 13.9092 6.37402C13.6907 6.37402 13.5137 6.5511 13.5137 6.76953C13.5137 6.98797 13.6907 7.16504 13.9092 7.16504Z" fill="black"/>
<path d="M17.3447 8.21167C17.5632 8.21167 17.7402 8.0346 17.7402 7.81616C17.7402 7.59773 17.5632 7.42065 17.3447 7.42065C17.1263 7.42065 16.9492 7.59773 16.9492 7.81616C16.9492 8.0346 17.1263 8.21167 17.3447 8.21167Z" fill="black"/>
</svg>
