<svg width="352" height="55" viewBox="0 0 352 55" fill="none" xmlns="http://www.w3.org/2000/svg">
<path d="M2.34783 0.82201L0 0.82201L0 54.2527L33.4755 54.2527V52.0856L2.34783 52.0856L2.34783 0.82201Z" fill="black" fill-opacity="0.2"/>
<path d="M70.5314 2.9144L103.78 2.9144V0.82201L68.1835 0.82201L68.1835 54.2527H104.537V52.0856H70.5314L70.5314 27.6495L101.129 27.6495V25.5571L70.5314 25.5571V2.9144Z" fill="black" fill-opacity="0.2"/>
<path d="M164.22 54.2527H166.643L188.077 4.40897H188.152V54.2527H190.5V0.82201L186.941 0.82201L165.507 51.1889H165.431L143.695 0.82201L140.287 0.82201V54.2527H142.559V4.40897H142.635L164.22 54.2527Z" fill="black" fill-opacity="0.2"/>
<path d="M251.087 55C265.78 55 276.08 43.3424 276.08 27.5747C276.08 11.7323 265.78 0 251.087 0C236.394 0 226.245 11.7323 226.245 27.5747C226.245 43.4171 236.394 55 251.087 55ZM251.087 52.8329C237.227 52.8329 228.745 41.6236 228.745 27.5747C228.745 13.3764 237.227 2.16712 251.087 2.16712C264.871 2.16712 273.581 13.4511 273.581 27.5747C273.581 41.6236 264.871 52.8329 251.087 52.8329Z" fill="black" fill-opacity="0.2"/>
<path d="M352 0.82201L349.728 0.82201V50.3669H349.652L314.51 0.82201L311.86 0.82201V54.2527H314.132V4.70788H314.207L349.501 54.2527H352V0.82201Z" fill="black" fill-opacity="0.2"/>
</svg>
